<svg width="260" height="133" viewBox="0 0 260 133" fill="none" xmlns="http://www.w3.org/2000/svg">
<rect width="260" height="133" rx="5" fill="#F2F5F7"/>
<path d="M20.3125 103.333L75.8453 20.6667L103.221 58.0257L69.5881 86.641" stroke="#621708"/>
<path d="M70.0575 86.8L103.781 58.1157L129.662 20.6667L157.111 58.1157L123.388 86.8" stroke="#621708"/>
<path d="M177.032 20.6667L159.184 59.8246L128.093 103.333H175.765H223.437L177.032 20.6667Z" stroke="#F6AA1C"/>
<path d="M161.256 53.7333L198.565 57.8667" stroke="#F6AA1C"/>
<path d="M14.65 122.084C14.09 122.084 13.586 121.988 13.138 121.796C12.69 121.596 12.338 121.316 12.082 120.956C11.826 120.596 11.698 120.176 11.698 119.696H13.162C13.194 120.056 13.334 120.352 13.582 120.584C13.838 120.816 14.194 120.932 14.65 120.932C15.122 120.932 15.49 120.82 15.754 120.596C16.018 120.364 16.15 120.068 16.15 119.708C16.15 119.428 16.066 119.2 15.898 119.024C15.738 118.848 15.534 118.712 15.286 118.616C15.046 118.52 14.71 118.416 14.278 118.304C13.734 118.16 13.29 118.016 12.946 117.872C12.61 117.72 12.322 117.488 12.082 117.176C11.842 116.864 11.722 116.448 11.722 115.928C11.722 115.448 11.842 115.028 12.082 114.668C12.322 114.308 12.658 114.032 13.09 113.84C13.522 113.648 14.022 113.552 14.59 113.552C15.398 113.552 16.058 113.756 16.57 114.164C17.09 114.564 17.378 115.116 17.434 115.82H15.922C15.898 115.516 15.754 115.256 15.49 115.04C15.226 114.824 14.878 114.716 14.446 114.716C14.054 114.716 13.734 114.816 13.486 115.016C13.238 115.216 13.114 115.504 13.114 115.88C13.114 116.136 13.19 116.348 13.342 116.516C13.502 116.676 13.702 116.804 13.942 116.9C14.182 116.996 14.51 117.1 14.926 117.212C15.478 117.364 15.926 117.516 16.27 117.668C16.622 117.82 16.918 118.056 17.158 118.376C17.406 118.688 17.53 119.108 17.53 119.636C17.53 120.06 17.414 120.46 17.182 120.836C16.958 121.212 16.626 121.516 16.186 121.748C15.754 121.972 15.242 122.084 14.65 122.084ZM19.8401 114.512C19.5921 114.512 19.3841 114.428 19.2161 114.26C19.0481 114.092 18.9641 113.884 18.9641 113.636C18.9641 113.388 19.0481 113.18 19.2161 113.012C19.3841 112.844 19.5921 112.76 19.8401 112.76C20.0801 112.76 20.2841 112.844 20.4521 113.012C20.6201 113.18 20.7041 113.388 20.7041 113.636C20.7041 113.884 20.6201 114.092 20.4521 114.26C20.2841 114.428 20.0801 114.512 19.8401 114.512ZM20.5121 115.388V122H19.1441V115.388H20.5121ZM24.7082 122.108C24.1882 122.108 23.7202 122.016 23.3042 121.832C22.8962 121.64 22.5722 121.384 22.3322 121.064C22.0922 120.736 21.9642 120.372 21.9482 119.972H23.3642C23.3882 120.252 23.5202 120.488 23.7602 120.68C24.0082 120.864 24.3162 120.956 24.6842 120.956C25.0682 120.956 25.3642 120.884 25.5722 120.74C25.7882 120.588 25.8962 120.396 25.8962 120.164C25.8962 119.916 25.7762 119.732 25.5362 119.612C25.3042 119.492 24.9322 119.36 24.4202 119.216C23.9242 119.08 23.5202 118.948 23.2082 118.82C22.8962 118.692 22.6242 118.496 22.3922 118.232C22.1682 117.968 22.0562 117.62 22.0562 117.188C22.0562 116.836 22.1602 116.516 22.3682 116.228C22.5762 115.932 22.8722 115.7 23.2562 115.532C23.6482 115.364 24.0962 115.28 24.6002 115.28C25.3522 115.28 25.9562 115.472 26.4122 115.856C26.8762 116.232 27.1242 116.748 27.1562 117.404H25.7882C25.7642 117.108 25.6442 116.872 25.4282 116.696C25.2122 116.52 24.9202 116.432 24.5522 116.432C24.1922 116.432 23.9162 116.5 23.7242 116.636C23.5322 116.772 23.4362 116.952 23.4362 117.176C23.4362 117.352 23.5002 117.5 23.6282 117.62C23.7562 117.74 23.9122 117.836 24.0962 117.908C24.2802 117.972 24.5522 118.056 24.9122 118.16C25.3922 118.288 25.7842 118.42 26.0882 118.556C26.4002 118.684 26.6682 118.876 26.8922 119.132C27.1162 119.388 27.2322 119.728 27.2402 120.152C27.2402 120.528 27.1362 120.864 26.9282 121.16C26.7202 121.456 26.4242 121.688 26.0402 121.856C25.6642 122.024 25.2202 122.108 24.7082 122.108ZM30.3144 116.504V120.164C30.3144 120.412 30.3704 120.592 30.4824 120.704C30.6024 120.808 30.8024 120.86 31.0824 120.86H31.9224V122H30.8424C30.2264 122 29.7544 121.856 29.4264 121.568C29.0984 121.28 28.9344 120.812 28.9344 120.164V116.504H28.1544V115.388H28.9344V113.744H30.3144V115.388H31.9224V116.504H30.3144ZM39.2432 118.532C39.2432 118.78 39.2272 119.004 39.1952 119.204H34.1432C34.1832 119.732 34.3792 120.156 34.7312 120.476C35.0832 120.796 35.5152 120.956 36.0272 120.956C36.7632 120.956 37.2832 120.648 37.5872 120.032H39.0632C38.8632 120.64 38.4992 121.14 37.9712 121.532C37.4512 121.916 36.8032 122.108 36.0272 122.108C35.3952 122.108 34.8272 121.968 34.3232 121.688C33.8272 121.4 33.4352 121 33.1472 120.488C32.8672 119.968 32.7272 119.368 32.7272 118.688C32.7272 118.008 32.8632 117.412 33.1352 116.9C33.4152 116.38 33.8032 115.98 34.2992 115.7C34.8032 115.42 35.3792 115.28 36.0272 115.28C36.6512 115.28 37.2072 115.416 37.6952 115.688C38.1832 115.96 38.5632 116.344 38.8352 116.84C39.1072 117.328 39.2432 117.892 39.2432 118.532ZM37.8152 118.1C37.8072 117.596 37.6272 117.192 37.2752 116.888C36.9232 116.584 36.4872 116.432 35.9672 116.432C35.4952 116.432 35.0912 116.584 34.7552 116.888C34.4192 117.184 34.2192 117.588 34.1552 118.1H37.8152ZM48.5935 115.28C49.1135 115.28 49.5775 115.388 49.9855 115.604C50.4015 115.82 50.7255 116.14 50.9575 116.564C51.1975 116.988 51.3175 117.5 51.3175 118.1V122H49.9615V118.304C49.9615 117.712 49.8135 117.26 49.5175 116.948C49.2215 116.628 48.8175 116.468 48.3055 116.468C47.7935 116.468 47.3855 116.628 47.0815 116.948C46.7855 117.26 46.6375 117.712 46.6375 118.304V122H45.2815V118.304C45.2815 117.712 45.1335 117.26 44.8375 116.948C44.5415 116.628 44.1375 116.468 43.6255 116.468C43.1135 116.468 42.7055 116.628 42.4015 116.948C42.1055 117.26 41.9575 117.712 41.9575 118.304V122H40.5895V115.388H41.9575V116.144C42.1815 115.872 42.4655 115.66 42.8095 115.508C43.1535 115.356 43.5215 115.28 43.9135 115.28C44.4415 115.28 44.9135 115.392 45.3295 115.616C45.7455 115.84 46.0655 116.164 46.2895 116.588C46.4895 116.188 46.8015 115.872 47.2255 115.64C47.6495 115.4 48.1055 115.28 48.5935 115.28ZM52.6022 118.664C52.6022 118 52.7382 117.412 53.0102 116.9C53.2902 116.388 53.6662 115.992 54.1382 115.712C54.6182 115.424 55.1462 115.28 55.7222 115.28C56.2422 115.28 56.6942 115.384 57.0782 115.592C57.4702 115.792 57.7822 116.044 58.0142 116.348V115.388H59.3942V122H58.0142V121.016C57.7822 121.328 57.4662 121.588 57.0662 121.796C56.6662 122.004 56.2102 122.108 55.6982 122.108C55.1302 122.108 54.6102 121.964 54.1382 121.676C53.6662 121.38 53.2902 120.972 53.0102 120.452C52.7382 119.924 52.6022 119.328 52.6022 118.664ZM58.0142 118.688C58.0142 118.232 57.9182 117.836 57.7262 117.5C57.5422 117.164 57.2982 116.908 56.9942 116.732C56.6902 116.556 56.3622 116.468 56.0102 116.468C55.6582 116.468 55.3302 116.556 55.0262 116.732C54.7222 116.9 54.4742 117.152 54.2822 117.488C54.0982 117.816 54.0062 118.208 54.0062 118.664C54.0062 119.12 54.0982 119.52 54.2822 119.864C54.4742 120.208 54.7222 120.472 55.0262 120.656C55.3382 120.832 55.6662 120.92 56.0102 120.92C56.3622 120.92 56.6902 120.832 56.9942 120.656C57.2982 120.48 57.5422 120.224 57.7262 119.888C57.9182 119.544 58.0142 119.144 58.0142 118.688ZM65.6762 116.36C65.9082 116.056 66.2242 115.8 66.6242 115.592C67.0242 115.384 67.4762 115.28 67.9802 115.28C68.5562 115.28 69.0802 115.424 69.5522 115.712C70.0322 115.992 70.4082 116.388 70.6802 116.9C70.9522 117.412 71.0882 118 71.0882 118.664C71.0882 119.328 70.9522 119.924 70.6802 120.452C70.4082 120.972 70.0322 121.38 69.5522 121.676C69.0802 121.964 68.5562 122.108 67.9802 122.108C67.4762 122.108 67.0282 122.008 66.6362 121.808C66.2442 121.6 65.9242 121.344 65.6762 121.04V125.144H64.3082V115.388H65.6762V116.36ZM69.6962 118.664C69.6962 118.208 69.6002 117.816 69.4082 117.488C69.2242 117.152 68.9762 116.9 68.6642 116.732C68.3602 116.556 68.0322 116.468 67.6802 116.468C67.3362 116.468 67.0082 116.556 66.6962 116.732C66.3922 116.908 66.1442 117.164 65.9522 117.5C65.7682 117.836 65.6762 118.232 65.6762 118.688C65.6762 119.144 65.7682 119.544 65.9522 119.888C66.1442 120.224 66.3922 120.48 66.6962 120.656C67.0082 120.832 67.3362 120.92 67.6802 120.92C68.0322 120.92 68.3602 120.832 68.6642 120.656C68.9762 120.472 69.2242 120.208 69.4082 119.864C69.6002 119.52 69.6962 119.12 69.6962 118.664ZM71.985 118.664C71.985 118 72.121 117.412 72.393 116.9C72.673 116.388 73.049 115.992 73.521 115.712C74.001 115.424 74.529 115.28 75.105 115.28C75.625 115.28 76.077 115.384 76.461 115.592C76.853 115.792 77.165 116.044 77.397 116.348V115.388H78.777V122H77.397V121.016C77.165 121.328 76.849 121.588 76.449 121.796C76.049 122.004 75.593 122.108 75.081 122.108C74.513 122.108 73.993 121.964 73.521 121.676C73.049 121.38 72.673 120.972 72.393 120.452C72.121 119.924 71.985 119.328 71.985 118.664ZM77.397 118.688C77.397 118.232 77.301 117.836 77.109 117.5C76.925 117.164 76.681 116.908 76.377 116.732C76.073 116.556 75.745 116.468 75.393 116.468C75.041 116.468 74.713 116.556 74.409 116.732C74.105 116.9 73.857 117.152 73.665 117.488C73.481 117.816 73.389 118.208 73.389 118.664C73.389 119.12 73.481 119.52 73.665 119.864C73.857 120.208 74.105 120.472 74.409 120.656C74.721 120.832 75.049 120.92 75.393 120.92C75.745 120.92 76.073 120.832 76.377 120.656C76.681 120.48 76.925 120.224 77.109 119.888C77.301 119.544 77.397 119.144 77.397 118.688ZM81.9418 116.348C82.1418 116.012 82.4058 115.752 82.7338 115.568C83.0698 115.376 83.4658 115.28 83.9218 115.28V116.696H83.5738C83.0378 116.696 82.6298 116.832 82.3498 117.104C82.0778 117.376 81.9418 117.848 81.9418 118.52V122H80.5738V115.388H81.9418V116.348ZM84.7233 118.664C84.7233 118 84.8593 117.412 85.1313 116.9C85.4113 116.388 85.7873 115.992 86.2593 115.712C86.7393 115.424 87.2673 115.28 87.8433 115.28C88.3633 115.28 88.8153 115.384 89.1993 115.592C89.5913 115.792 89.9033 116.044 90.1353 116.348V115.388H91.5153V122H90.1353V121.016C89.9033 121.328 89.5873 121.588 89.1873 121.796C88.7873 122.004 88.3313 122.108 87.8193 122.108C87.2513 122.108 86.7313 121.964 86.2593 121.676C85.7873 121.38 85.4113 120.972 85.1313 120.452C84.8593 119.924 84.7233 119.328 84.7233 118.664ZM90.1353 118.688C90.1353 118.232 90.0393 117.836 89.8473 117.5C89.6633 117.164 89.4193 116.908 89.1153 116.732C88.8113 116.556 88.4833 116.468 88.1313 116.468C87.7793 116.468 87.4513 116.556 87.1473 116.732C86.8433 116.9 86.5953 117.152 86.4033 117.488C86.2193 117.816 86.1273 118.208 86.1273 118.664C86.1273 119.12 86.2193 119.52 86.4033 119.864C86.5953 120.208 86.8433 120.472 87.1473 120.656C87.4593 120.832 87.7873 120.92 88.1313 120.92C88.4833 120.92 88.8113 120.832 89.1153 120.656C89.4193 120.48 89.6633 120.224 89.8473 119.888C90.0393 119.544 90.1353 119.144 90.1353 118.688ZM99.1773 122.084C98.6173 122.084 98.1133 121.988 97.6653 121.796C97.2173 121.596 96.8653 121.316 96.6093 120.956C96.3533 120.596 96.2253 120.176 96.2253 119.696H97.6893C97.7213 120.056 97.8613 120.352 98.1093 120.584C98.3653 120.816 98.7213 120.932 99.1773 120.932C99.6493 120.932 100.017 120.82 100.281 120.596C100.545 120.364 100.677 120.068 100.677 119.708C100.677 119.428 100.593 119.2 100.425 119.024C100.265 118.848 100.061 118.712 99.8133 118.616C99.5733 118.52 99.2373 118.416 98.8053 118.304C98.2613 118.16 97.8173 118.016 97.4733 117.872C97.1373 117.72 96.8493 117.488 96.6093 117.176C96.3693 116.864 96.2493 116.448 96.2493 115.928C96.2493 115.448 96.3693 115.028 96.6093 114.668C96.8493 114.308 97.1853 114.032 97.6173 113.84C98.0493 113.648 98.5493 113.552 99.1173 113.552C99.9253 113.552 100.585 113.756 101.097 114.164C101.617 114.564 101.905 115.116 101.961 115.82H100.449C100.425 115.516 100.281 115.256 100.017 115.04C99.7533 114.824 99.4053 114.716 98.9733 114.716C98.5813 114.716 98.2613 114.816 98.0133 115.016C97.7653 115.216 97.6413 115.504 97.6413 115.88C97.6413 116.136 97.7173 116.348 97.8693 116.516C98.0293 116.676 98.2293 116.804 98.4693 116.9C98.7093 116.996 99.0373 117.1 99.4533 117.212C100.005 117.364 100.453 117.516 100.797 117.668C101.149 117.82 101.445 118.056 101.685 118.376C101.933 118.688 102.057 119.108 102.057 119.636C102.057 120.06 101.941 120.46 101.709 120.836C101.485 121.212 101.153 121.516 100.713 121.748C100.281 121.972 99.7693 122.084 99.1773 122.084ZM109.659 115.388V122H108.291V121.22C108.075 121.492 107.791 121.708 107.439 121.868C107.095 122.02 106.727 122.096 106.335 122.096C105.815 122.096 105.347 121.988 104.931 121.772C104.523 121.556 104.199 121.236 103.959 120.812C103.727 120.388 103.611 119.876 103.611 119.276V115.388H104.967V119.072C104.967 119.664 105.115 120.12 105.411 120.44C105.707 120.752 106.111 120.908 106.623 120.908C107.135 120.908 107.539 120.752 107.835 120.44C108.139 120.12 108.291 119.664 108.291 119.072V115.388H109.659ZM112.832 116.372C113.064 116.052 113.38 115.792 113.78 115.592C114.188 115.384 114.64 115.28 115.136 115.28C115.72 115.28 116.248 115.42 116.72 115.7C117.192 115.98 117.564 116.38 117.836 116.9C118.108 117.412 118.244 118 118.244 118.664C118.244 119.328 118.108 119.924 117.836 120.452C117.564 120.972 117.188 121.38 116.708 121.676C116.236 121.964 115.712 122.108 115.136 122.108C114.624 122.108 114.168 122.008 113.768 121.808C113.376 121.608 113.064 121.352 112.832 121.04V122H111.464V113.12H112.832V116.372ZM116.852 118.664C116.852 118.208 116.756 117.816 116.564 117.488C116.38 117.152 116.132 116.9 115.82 116.732C115.516 116.556 115.188 116.468 114.836 116.468C114.492 116.468 114.164 116.556 113.852 116.732C113.548 116.908 113.3 117.164 113.108 117.5C112.924 117.836 112.832 118.232 112.832 118.688C112.832 119.144 112.924 119.544 113.108 119.888C113.3 120.224 113.548 120.48 113.852 120.656C114.164 120.832 114.492 120.92 114.836 120.92C115.188 120.92 115.516 120.832 115.82 120.656C116.132 120.472 116.38 120.208 116.564 119.864C116.756 119.52 116.852 119.12 116.852 118.664ZM127.601 115.28C128.121 115.28 128.585 115.388 128.993 115.604C129.409 115.82 129.733 116.14 129.965 116.564C130.205 116.988 130.325 117.5 130.325 118.1V122H128.969V118.304C128.969 117.712 128.821 117.26 128.525 116.948C128.229 116.628 127.825 116.468 127.313 116.468C126.801 116.468 126.393 116.628 126.089 116.948C125.793 117.26 125.645 117.712 125.645 118.304V122H124.289V118.304C124.289 117.712 124.141 117.26 123.845 116.948C123.549 116.628 123.145 116.468 122.633 116.468C122.121 116.468 121.713 116.628 121.409 116.948C121.113 117.26 120.965 117.712 120.965 118.304V122H119.597V115.388H120.965V116.144C121.189 115.872 121.473 115.66 121.817 115.508C122.161 115.356 122.529 115.28 122.921 115.28C123.449 115.28 123.921 115.392 124.337 115.616C124.753 115.84 125.073 116.164 125.297 116.588C125.497 116.188 125.809 115.872 126.233 115.64C126.657 115.4 127.113 115.28 127.601 115.28ZM132.762 114.512C132.514 114.512 132.306 114.428 132.138 114.26C131.97 114.092 131.886 113.884 131.886 113.636C131.886 113.388 131.97 113.18 132.138 113.012C132.306 112.844 132.514 112.76 132.762 112.76C133.002 112.76 133.206 112.844 133.374 113.012C133.542 113.18 133.626 113.388 133.626 113.636C133.626 113.884 133.542 114.092 133.374 114.26C133.206 114.428 133.002 114.512 132.762 114.512ZM133.434 115.388V122H132.066V115.388H133.434ZM137.63 122.108C137.11 122.108 136.642 122.016 136.226 121.832C135.818 121.64 135.494 121.384 135.254 121.064C135.014 120.736 134.886 120.372 134.87 119.972H136.286C136.31 120.252 136.442 120.488 136.682 120.68C136.93 120.864 137.238 120.956 137.606 120.956C137.99 120.956 138.286 120.884 138.494 120.74C138.71 120.588 138.818 120.396 138.818 120.164C138.818 119.916 138.698 119.732 138.458 119.612C138.226 119.492 137.854 119.36 137.342 119.216C136.846 119.08 136.442 118.948 136.13 118.82C135.818 118.692 135.546 118.496 135.314 118.232C135.09 117.968 134.978 117.62 134.978 117.188C134.978 116.836 135.082 116.516 135.29 116.228C135.498 115.932 135.794 115.7 136.178 115.532C136.57 115.364 137.018 115.28 137.522 115.28C138.274 115.28 138.878 115.472 139.334 115.856C139.798 116.232 140.046 116.748 140.078 117.404H138.71C138.686 117.108 138.566 116.872 138.35 116.696C138.134 116.52 137.842 116.432 137.474 116.432C137.114 116.432 136.838 116.5 136.646 116.636C136.454 116.772 136.358 116.952 136.358 117.176C136.358 117.352 136.422 117.5 136.55 117.62C136.678 117.74 136.834 117.836 137.018 117.908C137.202 117.972 137.474 118.056 137.834 118.16C138.314 118.288 138.706 118.42 139.01 118.556C139.322 118.684 139.59 118.876 139.814 119.132C140.038 119.388 140.154 119.728 140.162 120.152C140.162 120.528 140.058 120.864 139.85 121.16C139.642 121.456 139.346 121.688 138.962 121.856C138.586 122.024 138.142 122.108 137.63 122.108ZM144.04 122.108C143.52 122.108 143.052 122.016 142.636 121.832C142.228 121.64 141.904 121.384 141.664 121.064C141.424 120.736 141.296 120.372 141.28 119.972H142.696C142.72 120.252 142.852 120.488 143.092 120.68C143.34 120.864 143.648 120.956 144.016 120.956C144.4 120.956 144.696 120.884 144.904 120.74C145.12 120.588 145.228 120.396 145.228 120.164C145.228 119.916 145.108 119.732 144.868 119.612C144.636 119.492 144.264 119.36 143.752 119.216C143.256 119.08 142.852 118.948 142.54 118.82C142.228 118.692 141.956 118.496 141.724 118.232C141.5 117.968 141.388 117.62 141.388 117.188C141.388 116.836 141.492 116.516 141.7 116.228C141.908 115.932 142.204 115.7 142.588 115.532C142.98 115.364 143.428 115.28 143.932 115.28C144.684 115.28 145.288 115.472 145.744 115.856C146.208 116.232 146.456 116.748 146.488 117.404H145.12C145.096 117.108 144.976 116.872 144.76 116.696C144.544 116.52 144.252 116.432 143.884 116.432C143.524 116.432 143.248 116.5 143.056 116.636C142.864 116.772 142.768 116.952 142.768 117.176C142.768 117.352 142.832 117.5 142.96 117.62C143.088 117.74 143.244 117.836 143.428 117.908C143.612 117.972 143.884 118.056 144.244 118.16C144.724 118.288 145.116 118.42 145.42 118.556C145.732 118.684 146 118.876 146.224 119.132C146.448 119.388 146.564 119.728 146.572 120.152C146.572 120.528 146.468 120.864 146.26 121.16C146.052 121.456 145.756 121.688 145.372 121.856C144.996 122.024 144.552 122.108 144.04 122.108ZM147.594 118.664C147.594 118 147.73 117.412 148.002 116.9C148.282 116.388 148.658 115.992 149.13 115.712C149.61 115.424 150.138 115.28 150.714 115.28C151.234 115.28 151.686 115.384 152.07 115.592C152.462 115.792 152.774 116.044 153.006 116.348V115.388H154.386V122H153.006V121.016C152.774 121.328 152.458 121.588 152.058 121.796C151.658 122.004 151.202 122.108 150.69 122.108C150.122 122.108 149.602 121.964 149.13 121.676C148.658 121.38 148.282 120.972 148.002 120.452C147.73 119.924 147.594 119.328 147.594 118.664ZM153.006 118.688C153.006 118.232 152.91 117.836 152.718 117.5C152.534 117.164 152.29 116.908 151.986 116.732C151.682 116.556 151.354 116.468 151.002 116.468C150.65 116.468 150.322 116.556 150.018 116.732C149.714 116.9 149.466 117.152 149.274 117.488C149.09 117.816 148.998 118.208 148.998 118.664C148.998 119.12 149.09 119.52 149.274 119.864C149.466 120.208 149.714 120.472 150.018 120.656C150.33 120.832 150.658 120.92 151.002 120.92C151.354 120.92 151.682 120.832 151.986 120.656C152.29 120.48 152.534 120.224 152.718 119.888C152.91 119.544 153.006 119.144 153.006 118.688ZM149.262 114.704C149.326 114.24 149.478 113.892 149.718 113.66C149.958 113.42 150.258 113.3 150.618 113.3C150.77 113.3 150.902 113.324 151.014 113.372C151.126 113.42 151.262 113.492 151.422 113.588C151.542 113.668 151.642 113.728 151.722 113.768C151.81 113.808 151.906 113.828 152.01 113.828C152.146 113.828 152.258 113.788 152.346 113.708C152.442 113.62 152.502 113.492 152.526 113.324H153.294C153.23 113.788 153.078 114.14 152.838 114.38C152.598 114.612 152.298 114.728 151.938 114.728C151.786 114.728 151.65 114.704 151.53 114.656C151.41 114.6 151.278 114.524 151.134 114.428C150.99 114.34 150.878 114.28 150.798 114.248C150.726 114.208 150.642 114.188 150.546 114.188C150.41 114.188 150.294 114.232 150.198 114.32C150.11 114.408 150.054 114.536 150.03 114.704H149.262ZM159.051 122.108C158.427 122.108 157.863 121.968 157.359 121.688C156.855 121.4 156.459 121 156.171 120.488C155.883 119.968 155.739 119.368 155.739 118.688C155.739 118.016 155.887 117.42 156.183 116.9C156.479 116.38 156.883 115.98 157.395 115.7C157.907 115.42 158.479 115.28 159.111 115.28C159.743 115.28 160.315 115.42 160.827 115.7C161.339 115.98 161.743 116.38 162.039 116.9C162.335 117.42 162.483 118.016 162.483 118.688C162.483 119.36 162.331 119.956 162.027 120.476C161.723 120.996 161.307 121.4 160.779 121.688C160.259 121.968 159.683 122.108 159.051 122.108ZM159.051 120.92C159.403 120.92 159.731 120.836 160.035 120.668C160.347 120.5 160.599 120.248 160.791 119.912C160.983 119.576 161.079 119.168 161.079 118.688C161.079 118.208 160.987 117.804 160.803 117.476C160.619 117.14 160.375 116.888 160.071 116.72C159.767 116.552 159.439 116.468 159.087 116.468C158.735 116.468 158.407 116.552 158.103 116.72C157.807 116.888 157.571 117.14 157.395 117.476C157.219 117.804 157.131 118.208 157.131 118.688C157.131 119.4 157.311 119.952 157.671 120.344C158.039 120.728 158.499 120.92 159.051 120.92ZM166.497 118.664C166.497 118 166.633 117.412 166.905 116.9C167.185 116.388 167.561 115.992 168.033 115.712C168.513 115.424 169.045 115.28 169.629 115.28C170.061 115.28 170.485 115.376 170.901 115.568C171.325 115.752 171.661 116 171.909 116.312V113.12H173.289V122H171.909V121.004C171.685 121.324 171.373 121.588 170.973 121.796C170.581 122.004 170.129 122.108 169.617 122.108C169.041 122.108 168.513 121.964 168.033 121.676C167.561 121.38 167.185 120.972 166.905 120.452C166.633 119.924 166.497 119.328 166.497 118.664ZM171.909 118.688C171.909 118.232 171.813 117.836 171.621 117.5C171.437 117.164 171.193 116.908 170.889 116.732C170.585 116.556 170.257 116.468 169.905 116.468C169.553 116.468 169.225 116.556 168.921 116.732C168.617 116.9 168.369 117.152 168.177 117.488C167.993 117.816 167.901 118.208 167.901 118.664C167.901 119.12 167.993 119.52 168.177 119.864C168.369 120.208 168.617 120.472 168.921 120.656C169.233 120.832 169.561 120.92 169.905 120.92C170.257 120.92 170.585 120.832 170.889 120.656C171.193 120.48 171.437 120.224 171.621 119.888C171.813 119.544 171.909 119.144 171.909 118.688ZM181.146 118.532C181.146 118.78 181.13 119.004 181.098 119.204H176.046C176.086 119.732 176.282 120.156 176.634 120.476C176.986 120.796 177.418 120.956 177.93 120.956C178.666 120.956 179.186 120.648 179.49 120.032H180.966C180.766 120.64 180.402 121.14 179.874 121.532C179.354 121.916 178.706 122.108 177.93 122.108C177.298 122.108 176.73 121.968 176.226 121.688C175.73 121.4 175.338 121 175.05 120.488C174.77 119.968 174.63 119.368 174.63 118.688C174.63 118.008 174.766 117.412 175.038 116.9C175.318 116.38 175.706 115.98 176.202 115.7C176.706 115.42 177.282 115.28 177.93 115.28C178.554 115.28 179.11 115.416 179.598 115.688C180.086 115.96 180.466 116.344 180.738 116.84C181.01 117.328 181.146 117.892 181.146 118.532ZM179.718 118.1C179.71 117.596 179.53 117.192 179.178 116.888C178.826 116.584 178.39 116.432 177.87 116.432C177.398 116.432 176.994 116.584 176.658 116.888C176.322 117.184 176.122 117.588 176.058 118.1H179.718Z" fill="#BC3908"/>
<path d="M190.637 120.296H187.145L186.545 122H185.117L188.105 113.648H189.689L192.677 122H191.237L190.637 120.296ZM190.253 119.18L188.897 115.304L187.529 119.18H190.253ZM195.572 116.504V120.164C195.572 120.412 195.628 120.592 195.74 120.704C195.86 120.808 196.06 120.86 196.34 120.86H197.18V122H196.1C195.484 122 195.012 121.856 194.684 121.568C194.356 121.28 194.192 120.812 194.192 120.164V116.504H193.412V115.388H194.192V113.744H195.572V115.388H197.18V116.504H195.572ZM199.137 114.512C198.889 114.512 198.681 114.428 198.513 114.26C198.345 114.092 198.261 113.884 198.261 113.636C198.261 113.388 198.345 113.18 198.513 113.012C198.681 112.844 198.889 112.76 199.137 112.76C199.377 112.76 199.581 112.844 199.749 113.012C199.917 113.18 200.001 113.388 200.001 113.636C200.001 113.884 199.917 114.092 199.749 114.26C199.581 114.428 199.377 114.512 199.137 114.512ZM199.809 115.388V122H198.441V115.388H199.809ZM204.161 120.776L206.033 115.388H207.485L204.965 122H203.333L200.825 115.388H202.289L204.161 120.776ZM209.215 114.512C208.967 114.512 208.759 114.428 208.591 114.26C208.423 114.092 208.339 113.884 208.339 113.636C208.339 113.388 208.423 113.18 208.591 113.012C208.759 112.844 208.967 112.76 209.215 112.76C209.455 112.76 209.659 112.844 209.827 113.012C209.995 113.18 210.079 113.388 210.079 113.636C210.079 113.884 209.995 114.092 209.827 114.26C209.659 114.428 209.455 114.512 209.215 114.512ZM209.887 115.388V122H208.519V115.388H209.887ZM211.227 118.664C211.227 118 211.363 117.412 211.635 116.9C211.915 116.388 212.291 115.992 212.763 115.712C213.243 115.424 213.775 115.28 214.359 115.28C214.791 115.28 215.215 115.376 215.631 115.568C216.055 115.752 216.391 116 216.639 116.312V113.12H218.019V122H216.639V121.004C216.415 121.324 216.103 121.588 215.703 121.796C215.311 122.004 214.859 122.108 214.347 122.108C213.771 122.108 213.243 121.964 212.763 121.676C212.291 121.38 211.915 120.972 211.635 120.452C211.363 119.924 211.227 119.328 211.227 118.664ZM216.639 118.688C216.639 118.232 216.543 117.836 216.351 117.5C216.167 117.164 215.923 116.908 215.619 116.732C215.315 116.556 214.987 116.468 214.635 116.468C214.283 116.468 213.955 116.556 213.651 116.732C213.347 116.9 213.099 117.152 212.907 117.488C212.723 117.816 212.631 118.208 212.631 118.664C212.631 119.12 212.723 119.52 212.907 119.864C213.099 120.208 213.347 120.472 213.651 120.656C213.963 120.832 214.291 120.92 214.635 120.92C214.987 120.92 215.315 120.832 215.619 120.656C215.923 120.48 216.167 120.224 216.351 119.888C216.543 119.544 216.639 119.144 216.639 118.688ZM219.36 118.664C219.36 118 219.496 117.412 219.768 116.9C220.048 116.388 220.424 115.992 220.896 115.712C221.376 115.424 221.904 115.28 222.48 115.28C223 115.28 223.452 115.384 223.836 115.592C224.228 115.792 224.54 116.044 224.772 116.348V115.388H226.152V122H224.772V121.016C224.54 121.328 224.224 121.588 223.824 121.796C223.424 122.004 222.968 122.108 222.456 122.108C221.888 122.108 221.368 121.964 220.896 121.676C220.424 121.38 220.048 120.972 219.768 120.452C219.496 119.924 219.36 119.328 219.36 118.664ZM224.772 118.688C224.772 118.232 224.676 117.836 224.484 117.5C224.3 117.164 224.056 116.908 223.752 116.732C223.448 116.556 223.12 116.468 222.768 116.468C222.416 116.468 222.088 116.556 221.784 116.732C221.48 116.9 221.232 117.152 221.04 117.488C220.856 117.816 220.764 118.208 220.764 118.664C220.764 119.12 220.856 119.52 221.04 119.864C221.232 120.208 221.48 120.472 221.784 120.656C222.096 120.832 222.424 120.92 222.768 120.92C223.12 120.92 223.448 120.832 223.752 120.656C224.056 120.48 224.3 120.224 224.484 119.888C224.676 119.544 224.772 119.144 224.772 118.688ZM227.493 118.664C227.493 118 227.629 117.412 227.901 116.9C228.181 116.388 228.557 115.992 229.029 115.712C229.509 115.424 230.041 115.28 230.625 115.28C231.057 115.28 231.481 115.376 231.897 115.568C232.321 115.752 232.657 116 232.905 116.312V113.12H234.285V122H232.905V121.004C232.681 121.324 232.369 121.588 231.969 121.796C231.577 122.004 231.125 122.108 230.613 122.108C230.037 122.108 229.509 121.964 229.029 121.676C228.557 121.38 228.181 120.972 227.901 120.452C227.629 119.924 227.493 119.328 227.493 118.664ZM232.905 118.688C232.905 118.232 232.809 117.836 232.617 117.5C232.433 117.164 232.189 116.908 231.885 116.732C231.581 116.556 231.253 116.468 230.901 116.468C230.549 116.468 230.221 116.556 229.917 116.732C229.613 116.9 229.365 117.152 229.173 117.488C228.989 117.816 228.897 118.208 228.897 118.664C228.897 119.12 228.989 119.52 229.173 119.864C229.365 120.208 229.613 120.472 229.917 120.656C230.229 120.832 230.557 120.92 230.901 120.92C231.253 120.92 231.581 120.832 231.885 120.656C232.189 120.48 232.433 120.224 232.617 119.888C232.809 119.544 232.905 119.144 232.905 118.688ZM242.142 118.532C242.142 118.78 242.126 119.004 242.094 119.204H237.042C237.082 119.732 237.278 120.156 237.63 120.476C237.982 120.796 238.414 120.956 238.926 120.956C239.662 120.956 240.182 120.648 240.486 120.032H241.962C241.762 120.64 241.398 121.14 240.87 121.532C240.35 121.916 239.702 122.108 238.926 122.108C238.294 122.108 237.726 121.968 237.222 121.688C236.726 121.4 236.334 121 236.046 120.488C235.766 119.968 235.626 119.368 235.626 118.688C235.626 118.008 235.762 117.412 236.034 116.9C236.314 116.38 236.702 115.98 237.198 115.7C237.702 115.42 238.278 115.28 238.926 115.28C239.55 115.28 240.106 115.416 240.594 115.688C241.082 115.96 241.462 116.344 241.734 116.84C242.006 117.328 242.142 117.892 242.142 118.532ZM240.714 118.1C240.706 117.596 240.526 117.192 240.174 116.888C239.822 116.584 239.386 116.432 238.866 116.432C238.394 116.432 237.99 116.584 237.654 116.888C237.318 117.184 237.118 117.588 237.054 118.1H240.714ZM245.888 122.108C245.368 122.108 244.9 122.016 244.484 121.832C244.076 121.64 243.752 121.384 243.512 121.064C243.272 120.736 243.144 120.372 243.128 119.972H244.544C244.568 120.252 244.7 120.488 244.94 120.68C245.188 120.864 245.496 120.956 245.864 120.956C246.248 120.956 246.544 120.884 246.752 120.74C246.968 120.588 247.076 120.396 247.076 120.164C247.076 119.916 246.956 119.732 246.716 119.612C246.484 119.492 246.112 119.36 245.6 119.216C245.104 119.08 244.7 118.948 244.388 118.82C244.076 118.692 243.804 118.496 243.572 118.232C243.348 117.968 243.236 117.62 243.236 117.188C243.236 116.836 243.34 116.516 243.548 116.228C243.756 115.932 244.052 115.7 244.436 115.532C244.828 115.364 245.276 115.28 245.78 115.28C246.532 115.28 247.136 115.472 247.592 115.856C248.056 116.232 248.304 116.748 248.336 117.404H246.968C246.944 117.108 246.824 116.872 246.608 116.696C246.392 116.52 246.1 116.432 245.732 116.432C245.372 116.432 245.096 116.5 244.904 116.636C244.712 116.772 244.616 116.952 244.616 117.176C244.616 117.352 244.68 117.5 244.808 117.62C244.936 117.74 245.092 117.836 245.276 117.908C245.46 117.972 245.732 118.056 246.092 118.16C246.572 118.288 246.964 118.42 247.268 118.556C247.58 118.684 247.848 118.876 248.072 119.132C248.296 119.388 248.412 119.728 248.42 120.152C248.42 120.528 248.316 120.864 248.108 121.16C247.9 121.456 247.604 121.688 247.22 121.856C246.844 122.024 246.4 122.108 245.888 122.108Z" fill="#F6AA1C"/>
</svg>
